<svg width="30" height="30" viewBox="0 0 30 30" fill="none" xmlns="http://www.w3.org/2000/svg">
<path d="M27.4375 5C27.4375 6.34619 26.3462 7.4375 25 7.4375C23.6538 7.4375 22.5625 6.34619 22.5625 5C22.5625 3.65381 23.6538 2.5625 25 2.5625C26.3462 2.5625 27.4375 3.65381 27.4375 5Z" stroke="black" stroke-width="2"/>
<path d="M23.5883 11.1648L23.5916 11.1655C24.4856 11.3561 25.3537 11.3562 26.1758 11.2094L26.1829 11.2082L26.19 11.2068C26.3749 11.171 26.5 11.3056 26.5 11.4375V17.45C26.5 20.3477 24.1602 22.6875 21.2625 22.6875H19.375C18.6524 22.6875 17.9992 23.0293 17.5788 23.5824L17.5764 23.5856L15.7014 26.0731L15.7 26.075C15.4486 26.4102 15.1855 26.5 15 26.5C14.8145 26.5 14.5514 26.4102 14.3 26.075L14.2986 26.0731L12.4276 23.591C12.2076 23.2922 11.9044 23.0779 11.6285 22.9399C11.3482 22.7998 10.9944 22.6875 10.625 22.6875H8.75C5.85228 22.6875 3.5 20.3352 3.5 17.4375V8.75C3.5 5.85228 5.85228 3.5 8.75 3.5H18.5625C18.7166 3.5 18.8308 3.63019 18.7963 3.79479L18.7962 3.79477L18.7938 3.80725C18.6279 4.6516 18.6464 5.52606 18.8345 6.40844L18.8352 6.41165C19.3432 8.75745 21.2426 10.6568 23.5883 11.1648ZM7.75 13.75C7.75 14.9832 8.7412 16 10 16C11.2588 16 12.25 14.9832 12.25 13.75C12.25 12.5102 11.2398 11.5 10 11.5C8.7412 11.5 7.75 12.5168 7.75 13.75ZM12.75 13.75C12.75 14.9832 13.7412 16 15 16C16.2588 16 17.25 14.9832 17.25 13.75C17.25 12.5102 16.2398 11.5 15 11.5C13.7412 11.5 12.75 12.5168 12.75 13.75ZM17.75 13.75C17.75 14.9832 18.7412 16 20 16C21.2588 16 22.25 14.9832 22.25 13.75C22.25 12.5102 21.2398 11.5 20 11.5C18.7412 11.5 17.75 12.5168 17.75 13.75Z" stroke="black" stroke-width="2"/>
</svg>
