<svg width="29" height="29" viewBox="0 0 29 29" fill="none" xmlns="http://www.w3.org/2000/svg">
<path d="M3.625 26.5833H25.375" stroke="#A1ABB3" stroke-width="2" stroke-linecap="round" stroke-linejoin="round"/>
<path d="M6.76664 10.126H4.83333C4.16875 10.126 3.625 10.6697 3.625 11.3343V21.7501C3.625 22.4147 4.16875 22.9585 4.83333 22.9585H6.76664C7.43122 22.9585 7.97497 22.4147 7.97497 21.7501V11.3343C7.97497 10.6697 7.43122 10.126 6.76664 10.126Z" stroke="#A1ABB3" stroke-width="2" stroke-linecap="round" stroke-linejoin="round"/>
<path d="M15.4666 6.27124H13.5333C12.8687 6.27124 12.325 6.81499 12.325 7.47957V21.75C12.325 22.4146 12.8687 22.9583 13.5333 22.9583H15.4666C16.1312 22.9583 16.6749 22.4146 16.6749 21.75V7.47957C16.6749 6.81499 16.1312 6.27124 15.4666 6.27124Z" stroke="#A1ABB3" stroke-width="2" stroke-linecap="round" stroke-linejoin="round"/>
<path d="M24.1668 2.41675H22.2335C21.5689 2.41675 21.0251 2.9605 21.0251 3.62508V21.7501C21.0251 22.4147 21.5689 22.9584 22.2335 22.9584H24.1668C24.8314 22.9584 25.3751 22.4147 25.3751 21.7501V3.62508C25.3751 2.9605 24.8314 2.41675 24.1668 2.41675Z" stroke="#A1ABB3" stroke-width="2" stroke-linecap="round" stroke-linejoin="round"/>
</svg>
